<svg xmlns="http://www.w3.org/2000/svg" xmlns:svg="http://www.w3.org/2000/svg" xmlns:xlink="http://www.w3.org/1999/xlink" id="svg" width="16" height="16" version="1.1" viewBox="0 0 16 16"><defs id="defs"><linearGradient id="All"><stop style="stop-color:#000;stop-opacity:0" id="stop5170" offset="0"/><stop style="stop-color:#000;stop-opacity:.5" id="stop5172" offset="1"/></linearGradient><linearGradient id="linearGradientFX" x1="0" x2="15" y1="0" y2="15" gradientUnits="userSpaceOnUse" xlink:href="#All"/><filter style="color-interpolation-filters:sRGB" id="filterMainShadow"><feFlood id="feFloodMain" flood-color="#000" flood-opacity=".5" result="flood"/><feComposite id="feCompositeMain1" in="flood" in2="SourceGraphic" operator="in" result="composite1"/><feGaussianBlur id="feGaussianBlurMain" in="composite1" result="blur" stdDeviation="0"/><feOffset id="feOffsetMain" dx="1" dy="1" result="offset"/><feComposite id="feCompositeMain2" in="SourceGraphic" in2="offset" operator="over" result="composite2"/></filter><rect id="rectBackground" width="15" height="15" x="0" y="0"/></defs><metadata id="metadata"/><g id="layerBackground" style="display:inline"><use id="Background" xlink:href="#rectBackground" style="filter:url(#filterMainShadow)" width="100%" height="100%" x="0" y="0"/><path style="fill:#fff;fill-opacity:1" id="rectBorder" d="M 0,0 V 15 H 15 V 0 Z M 1,1 H 14 V 14 H 1 Z"/></g><g id="layerText" style="display:inline"><rect id="rectTS1" width="2" height="1" x="2" y="2" style="fill:gray;fill-opacity:1"/><rect id="rectTxt1" width="5" height="1" x="5" y="2" style="fill:silver;fill-opacity:1"/><rect id="rectLoc1" width="2" height="1" x="11" y="2" style="fill:gray;fill-opacity:1"/><rect id="rectTS2" width="2" height="1" x="2" y="4" style="fill:gray;fill-opacity:1"/><rect id="rectTxt2" width="4" height="1" x="5" y="4" style="fill:teal;fill-opacity:1"/><rect id="rectLoc2" width="3" height="1" x="10" y="4" style="fill:gray;fill-opacity:1"/><rect id="rectTS3" width="2" height="1" x="2" y="6" style="fill:gray;fill-opacity:1"/><rect id="rectTxt3" width="6" height="1" x="5" y="6" style="fill:#ff0;fill-opacity:1"/><rect id="rectLoc3" width="1" height="1" x="12" y="6" style="fill:gray;fill-opacity:1"/><rect id="rectTS4" width="2" height="1" x="2" y="8" style="fill:gray;fill-opacity:1"/><rect id="rectTxt4" width="5" height="1" x="5" y="8" style="fill:silver;fill-opacity:1"/><rect id="rectLoc4" width="2" height="1" x="11" y="8" style="fill:gray;fill-opacity:1"/><rect id="rectTS5" width="2" height="1" x="2" y="10" style="fill:gray;fill-opacity:1"/><rect id="rectTxt5" width="6" height="1" x="5" y="10" style="fill:red;fill-opacity:1"/><rect id="rectLoc5" width="1" height="1" x="12" y="10" style="fill:gray;fill-opacity:1"/></g><g id="layerAll FX" style="display:inline"><use id="rectBackgroundFX" xlink:href="#rectBackground" style="fill:url(#linearGradientFX)" width="100%" height="100%" x="0" y="0"/></g></svg>